<?xml version="1.0" encoding="utf-8"?>
<!-- Generator: Adobe Illustrator 25.2.3, SVG Export Plug-In . SVG Version: 6.00 Build 0)  -->
<svg version="1.1" id="Layer_1" xmlns="http://www.w3.org/2000/svg" xmlns:xlink="http://www.w3.org/1999/xlink" x="0px" y="0px"
	 viewBox="0 0 1280 281.57" style="enable-background:new 0 0 1280 281.57;" xml:space="preserve">
<style type="text/css">
	.st0{fill:#FFB0D2;}
	.st1{fill:#FFFFFF;}
	.st2{fill:#FFD200;}
	.st3{fill:#00FF00;}
	.st4{fill:#00FFFF;}
</style>
<g>
	<g>
		<path class="st0" d="M159.74,88.43l2.88-2.93l10.27,10.09l14.95-15.22c5.98-6.09,1.62-16.37-6.92-16.3L25.86,65.43
			c-5.29,0.05-9.54,4.37-9.5,9.67l1.35,155.07c0.07,8.54,10.43,12.72,16.42,6.63l14.95-15.22l-10.27-10.09l2.88-2.93l10.27,10.09
			l17.28-17.58l-10.27-10.09l2.88-2.93l10.27,10.09l17.28-17.58l-10.27-10.09l2.88-2.93l10.27,10.09l17.28-17.58l-10.27-10.09
			l2.88-2.93l10.27,10.09l17.28-17.58l-10.27-10.09l2.88-2.93l10.27,10.09l17.28-17.58l-10.27-10.09l2.88-2.93l10.27,10.09
			l17.28-17.58L159.74,88.43z M56.15,169.78c-2.51,2.55-6.85,0.8-6.88-2.78l-0.57-65.03c-0.02-2.22,1.76-4.03,3.98-4.05l65.03-0.57
			c3.58-0.03,5.41,4.28,2.9,6.84L56.15,169.78z"/>
		
			<rect x="164.27" y="84.81" transform="matrix(0.7009 -0.7132 0.7132 0.7009 -15.8834 146.1417)" class="st1" width="4.11" height="14.4"/>
		
			<rect x="144.11" y="105.32" transform="matrix(0.7009 -0.7132 0.7132 0.7009 -36.5393 137.8998)" class="st1" width="4.11" height="14.4"/>
		
			<rect x="123.95" y="125.83" transform="matrix(0.7009 -0.7132 0.7132 0.7009 -57.1953 129.658)" class="st1" width="4.11" height="14.4"/>
		
			<rect x="103.8" y="146.34" transform="matrix(0.7009 -0.7132 0.7132 0.7009 -77.8512 121.4161)" class="st1" width="4.11" height="14.4"/>
		
			<rect x="83.64" y="166.85" transform="matrix(0.7009 -0.7132 0.7132 0.7009 -98.5072 113.1743)" class="st1" width="4.11" height="14.4"/>
		
			<rect x="63.49" y="187.36" transform="matrix(0.7009 -0.7132 0.7132 0.7009 -119.1631 104.9324)" class="st1" width="4.11" height="14.4"/>
		
			<rect x="43.33" y="207.87" transform="matrix(0.7009 -0.7132 0.7132 0.7009 -139.8191 96.6906)" class="st1" width="4.11" height="14.4"/>
	</g>
	<g>
		<polygon class="st2" points="1110.16,42.02 1107.16,38.37 1115.45,31.57 1110.28,25.28 1072.43,56.36 1225.79,243.06 
			1263.64,211.98 1258.47,205.69 1250.19,212.49 1247.19,208.84 1255.48,202.04 1244.47,188.64 1236.18,195.44 1233.19,191.8 
			1241.47,184.99 1230.46,171.59 1222.18,178.4 1219.19,174.75 1227.47,167.95 1216.46,154.54 1208.18,161.35 1205.18,157.7 
			1213.47,150.9 1202.46,137.5 1194.18,144.3 1191.18,140.66 1199.46,133.85 1188.46,120.45 1180.17,127.25 1177.18,123.61 
			1185.46,116.8 1174.45,103.4 1166.17,110.21 1163.17,106.56 1171.46,99.76 1160.45,86.36 1152.17,93.16 1149.17,89.51 
			1157.45,82.71 1146.45,69.31 1138.16,76.11 1135.17,72.47 1143.45,65.66 1132.44,52.26 1124.16,59.07 1121.16,55.42 
			1129.45,48.62 1118.44,35.21 		"/>
		
			<rect x="1107.44" y="34.43" transform="matrix(0.7727 -0.6347 0.6347 0.7727 229.558 714.7036)" class="st1" width="10.72" height="4.72"/>
		
			<rect x="1121.44" y="51.48" transform="matrix(0.7727 -0.6347 0.6347 0.7727 221.92 727.4664)" class="st1" width="10.72" height="4.72"/>
		
			<rect x="1135.45" y="68.53" transform="matrix(0.7727 -0.6347 0.6347 0.7727 214.282 740.2291)" class="st1" width="10.72" height="4.72"/>
		
			<rect x="1149.45" y="85.58" transform="matrix(0.7727 -0.6347 0.6347 0.7727 206.6441 752.9919)" class="st1" width="10.72" height="4.72"/>
		
			<rect x="1163.45" y="102.62" transform="matrix(0.7727 -0.6347 0.6347 0.7727 199.0061 765.7546)" class="st1" width="10.72" height="4.72"/>
		
			<rect x="1177.46" y="119.67" transform="matrix(0.7727 -0.6347 0.6347 0.7727 191.3682 778.5173)" class="st1" width="10.72" height="4.72"/>
		
			<rect x="1191.46" y="136.72" transform="matrix(0.7727 -0.6347 0.6347 0.7727 183.7302 791.2801)" class="st1" width="10.72" height="4.72"/>
		
			<rect x="1205.46" y="153.76" transform="matrix(0.7727 -0.6347 0.6347 0.7727 176.0909 804.0407)" class="st1" width="10.72" height="4.72"/>
		
			<rect x="1219.47" y="170.81" transform="matrix(0.7727 -0.6347 0.6347 0.7727 168.4543 816.8056)" class="st1" width="10.72" height="4.72"/>
		
			<rect x="1233.47" y="187.86" transform="matrix(0.7727 -0.6347 0.6347 0.7727 160.8163 829.5683)" class="st1" width="10.72" height="4.72"/>
		
			<rect x="1247.47" y="204.91" transform="matrix(0.7727 -0.6347 0.6347 0.7727 153.1783 842.3311)" class="st1" width="10.72" height="4.72"/>
	</g>
	<g>
		<path class="st3" d="M179.28,198.5l-13.74,19.35c-5.73-2.75-11.03-4.13-15.89-4.13c-3.23,0-5.82,0.84-7.78,2.51
			c-1.95,1.67-2.93,3.89-2.93,6.64c0,5.23,3.43,7.84,10.29,7.84v-10.08h28.5v34.7c-11.52,0.65-19.32,0.97-23.4,0.97
			c-15.74,0-26.67-3.34-32.8-10.03c-6.13-6.69-9.19-14.49-9.19-23.4c0-6.13,1.43-11.75,4.28-16.86c2.85-5.12,6.97-9.08,12.35-11.89
			c5.38-2.81,11.75-4.22,19.12-4.22c5.17,0,10.52,0.75,16.06,2.26C169.68,193.66,174.72,195.77,179.28,198.5z"/>
		<path class="st3" d="M210.26,255.24h-28.5l22.34-64.33h40.6l22.34,64.33h-28.46l-3.71-10.88h-20.91L210.26,255.24z M219.16,229.19
			h10.54l-5.27-15.98L219.16,229.19z"/>
		<path class="st3" d="M273.37,190.91h40.26c8.23,0,14.45,1.61,18.65,4.83c4.2,3.22,6.3,7.6,6.3,13.13c0,6.04-2.8,10.65-8.39,13.83
			c3.32,1.74,5.83,3.77,7.55,6.09c1.71,2.32,2.57,5.21,2.57,8.66c0,5.4-1.93,9.71-5.8,12.94c-3.86,3.23-9.28,4.85-16.25,4.85h-44.9
			V190.91z M301.87,203.85v12.52h0.72c3.09,0,5.28-0.47,6.58-1.41c1.29-0.94,1.94-2.56,1.94-4.87c0-4.16-2.5-6.24-7.5-6.24H301.87z
			 M301.87,227.17v13.91h0.89c3.26,0,5.59-0.5,6.98-1.5c1.39-1,2.09-2.72,2.09-5.16c0-4.83-2.66-7.25-7.97-7.25H301.87z"/>
		<path class="st3" d="M379.57,256.3c-9.19,0-16.98-3.23-23.38-9.68c-6.39-6.45-9.59-14.31-9.59-23.59c0-9.25,3.2-17.08,9.59-23.5
			c6.39-6.42,14.19-9.63,23.38-9.63c9.22,0,17.02,3.21,23.42,9.63c6.39,6.42,9.59,14.26,9.59,23.5c0,9.27-3.2,17.14-9.59,23.59
			C396.59,253.07,388.78,256.3,379.57,256.3z M379.57,214.56c-1.83,0-3.35,0.64-4.55,1.92c-1.21,1.28-1.81,2.89-1.81,4.83
			c0,1.94,0.6,3.55,1.81,4.83c1.21,1.28,2.73,1.92,4.55,1.92c1.85,0,3.39-0.64,4.6-1.92c1.21-1.28,1.81-2.89,1.81-4.83
			c0-1.94-0.6-3.55-1.81-4.83C382.95,215.2,381.42,214.56,379.57,214.56z"/>
		<path class="st3" d="M431.63,190.91h28.5v38.15c0,8.26-0.44,13.93-1.31,17.01s-2.87,5.55-6.01,7.42c-3.13,1.87-6.91,2.8-11.32,2.8
			c-5.85,0-11.02-1.43-15.54-4.3c-4.51-2.87-7.54-6.76-9.08-11.68c1.57,0.34,3.63,0.51,6.15,0.51c3.65,0,6-0.56,7.04-1.67
			c1.04-1.11,1.56-3.35,1.56-6.72V190.91z"/>
		<path class="st3" d="M492.34,255.24h-28.5l22.34-64.33h40.6l22.34,64.33h-28.46l-3.71-10.88h-20.91L492.34,255.24z M501.23,229.19
			h10.54l-5.27-15.98L501.23,229.19z"/>
		<path class="st3" d="M615.4,198.5l-13.74,19.35c-5.73-2.75-11.03-4.13-15.89-4.13c-3.23,0-5.82,0.84-7.78,2.51
			c-1.95,1.67-2.93,3.89-2.93,6.64c0,5.23,3.43,7.84,10.29,7.84v-10.08h28.5v34.7c-11.52,0.65-19.32,0.97-23.4,0.97
			c-15.74,0-26.67-3.34-32.8-10.03c-6.13-6.69-9.19-14.49-9.19-23.4c0-6.13,1.43-11.75,4.28-16.86s6.97-9.08,12.35-11.89
			c5.38-2.81,11.75-4.22,19.12-4.22c5.17,0,10.53,0.75,16.06,2.26C605.8,193.66,610.84,195.77,615.4,198.5z"/>
		<path class="st3" d="M654.64,256.3c-9.19,0-16.98-3.23-23.38-9.68c-6.39-6.45-9.59-14.31-9.59-23.59c0-9.25,3.2-17.08,9.59-23.5
			c6.39-6.42,14.19-9.63,23.38-9.63c9.22,0,17.02,3.21,23.42,9.63c6.39,6.42,9.59,14.26,9.59,23.5c0,9.27-3.2,17.14-9.59,23.59
			C671.67,253.07,663.86,256.3,654.64,256.3z M654.64,214.56c-1.83,0-3.34,0.64-4.55,1.92s-1.81,2.89-1.81,4.83
			c0,1.94,0.6,3.55,1.81,4.83s2.73,1.92,4.55,1.92c1.85,0,3.39-0.64,4.6-1.92s1.81-2.89,1.81-4.83c0-1.94-0.6-3.55-1.81-4.83
			S656.5,214.56,654.64,214.56z"/>
		<path class="st4" d="M780.57,194.2l-7.08,20.28c-4.64-6.27-9.96-9.4-15.98-9.4c-3.34,0-5.02,1.26-5.02,3.79
			c0,0.79,0.53,1.59,1.58,2.4c1.05,0.82,3.82,2.09,8.28,3.84c4.92,1.94,8.71,3.7,11.36,5.29s4.64,3.62,5.97,6.09
			c1.32,2.47,1.98,5.35,1.98,8.64c0,6.89-2.61,12.13-7.84,15.75s-12.91,5.42-23.06,5.42c-11.38,0-21.19-1.62-29.43-4.85l6.96-21.5
			c2.02,3.15,4.53,5.65,7.53,7.5c2.99,1.85,5.87,2.78,8.62,2.78c1.35,0,2.48-0.35,3.39-1.05c0.91-0.7,1.37-1.56,1.37-2.57
			c0-0.96-0.44-1.87-1.33-2.74c-0.89-0.87-3.23-2.08-7.02-3.63c-3.43-1.38-6.27-2.72-8.52-4.03c-2.25-1.31-4.2-3.17-5.86-5.59
			c-1.66-2.42-2.49-5.47-2.49-9.15c0-7.14,2.6-12.52,7.8-16.15c5.2-3.63,12.87-5.44,23.02-5.44
			C764.09,189.9,772.67,191.33,780.57,194.2z"/>
		<path class="st4" d="M849.45,196.69l-11.93,22.72c-3.48-1.21-7.34-1.81-11.55-1.81c-6.04,0-9.06,1.64-9.06,4.93
			c0,1.57,0.84,2.8,2.53,3.69c1.69,0.89,4.09,1.33,7.21,1.33c4.22,0,7.84-0.76,10.88-2.28l11.93,24.37
			c-3.37,2.02-7.45,3.64-12.23,4.85c-4.78,1.21-9.34,1.81-13.7,1.81c-10.93,0-19.64-3.15-26.12-9.46s-9.72-14.07-9.72-23.29
			c0-9.75,3.37-17.8,10.12-24.14c6.75-6.34,15.32-9.51,25.72-9.51c4.5,0,9.14,0.61,13.93,1.83
			C842.25,192.95,846.25,194.61,849.45,196.69z"/>
		<path class="st4" d="M885.16,255.24h-28.5v-64.33h28.5v23.57h14.5v-23.57h28.5v64.33h-28.5v-23.9h-14.5V255.24z"/>
		<path class="st4" d="M971.16,256.3c-9.19,0-16.98-3.23-23.38-9.68c-6.39-6.45-9.59-14.31-9.59-23.59c0-9.25,3.2-17.08,9.59-23.5
			c6.39-6.42,14.19-9.63,23.38-9.63c9.22,0,17.02,3.21,23.42,9.63c6.39,6.42,9.59,14.26,9.59,23.5c0,9.27-3.2,17.14-9.59,23.59
			C988.19,253.07,980.38,256.3,971.16,256.3z M971.16,214.56c-1.83,0-3.34,0.64-4.55,1.92c-1.21,1.28-1.81,2.89-1.81,4.83
			c0,1.94,0.6,3.55,1.81,4.83c1.21,1.28,2.73,1.92,4.55,1.92c1.85,0,3.39-0.64,4.6-1.92c1.21-1.28,1.81-2.89,1.81-4.83
			c0-1.94-0.6-3.55-1.81-4.83C974.55,215.2,973.02,214.56,971.16,214.56z"/>
		<path class="st4" d="M1044.9,256.3c-9.19,0-16.98-3.23-23.38-9.68c-6.39-6.45-9.59-14.31-9.59-23.59c0-9.25,3.2-17.08,9.59-23.5
			c6.39-6.42,14.19-9.63,23.38-9.63c9.22,0,17.02,3.21,23.42,9.63c6.39,6.42,9.59,14.26,9.59,23.5c0,9.27-3.2,17.14-9.59,23.59
			C1061.92,253.07,1054.12,256.3,1044.9,256.3z M1044.9,214.56c-1.83,0-3.34,0.64-4.55,1.92s-1.81,2.89-1.81,4.83
			c0,1.94,0.6,3.55,1.81,4.83s2.73,1.92,4.55,1.92c1.85,0,3.39-0.64,4.6-1.92s1.81-2.89,1.81-4.83c0-1.94-0.6-3.55-1.81-4.83
			S1046.75,214.56,1044.9,214.56z"/>
		<path class="st4" d="M1087.98,255.24v-64.33h28.5v48.19h24.96v16.15H1087.98z"/>
	</g>
</g>
</svg>
