<?xml version="1.0" encoding="utf-8"?>
<!-- Generator: Adobe Illustrator 25.2.3, SVG Export Plug-In . SVG Version: 6.00 Build 0)  -->
<svg version="1.1" id="Layer_1" xmlns="http://www.w3.org/2000/svg" xmlns:xlink="http://www.w3.org/1999/xlink" x="0px" y="0px"
	 viewBox="0 0 100 100" style="enable-background:new 0 0 100 100;" xml:space="preserve">
<style type="text/css">
	.st0{fill:#FFFFFF;}
	.st1{stroke:#000000;stroke-width:2.8346;stroke-miterlimit:10;}
</style>
<g>
	<g>
		<path class="st0" d="M9.2,93.3c-0.4,0-0.7-0.3-0.7-0.7c0-22.9,18.6-41.5,41.5-41.5s41.5,18.6,41.5,41.5c0,0.4-0.3,0.7-0.7,0.7H9.2
			z"/>
		<path class="st1" d="M50,51.8c22.5,0,40.8,18.3,40.8,40.8H9.2C9.2,70,27.5,51.8,50,51.8 M50,50.3c-23.3,0-42.2,19-42.2,42.2
			c0,0.8,0.6,1.4,1.4,1.4h81.6c0.8,0,1.4-0.6,1.4-1.4C92.2,69.3,73.3,50.3,50,50.3L50,50.3z"/>
	</g>
	<g>
		<path class="st0" d="M50,53.3c-12.5,0-22.6-10.1-22.6-22.6S37.5,8.1,50,8.1s22.6,10.1,22.6,22.6S62.5,53.3,50,53.3z"/>
		<path class="st1" d="M50,8.8c12.1,0,21.9,9.8,21.9,21.9S62.1,52.6,50,52.6s-21.9-9.8-21.9-21.9S37.9,8.8,50,8.8 M50,7.4
			c-12.9,0-23.3,10.4-23.3,23.3S37.1,54,50,54s23.3-10.4,23.3-23.3S62.9,7.4,50,7.4L50,7.4z"/>
	</g>
</g>
</svg>
