<?xml version="1.0" encoding="utf-8"?>
<!-- Generator: Adobe Illustrator 25.2.3, SVG Export Plug-In . SVG Version: 6.00 Build 0)  -->
<svg version="1.1" id="Layer_1" xmlns="http://www.w3.org/2000/svg" xmlns:xlink="http://www.w3.org/1999/xlink" x="0px" y="0px"
	 viewBox="0 0 100 100" style="enable-background:new 0 0 100 100;" xml:space="preserve">
<style type="text/css">
	.st0{fill:#FFFFFF;}
	.st1{stroke:#000000;stroke-width:2.8346;stroke-miterlimit:10;}
	.st2{fill:none;stroke:#000000;stroke-width:2.8346;stroke-linecap:round;stroke-linejoin:round;stroke-miterlimit:10;}
</style>
<g>
	<g>
		<path class="st0" d="M19.9,95.1c-0.4,0-0.7-0.3-0.7-0.7V24.2c0-0.4,0.3-0.7,0.7-0.7h60.2c0.4,0,0.7,0.3,0.7,0.7v70.2
			c0,0.4-0.3,0.7-0.7,0.7C80.1,95.1,19.9,95.1,19.9,95.1z"/>
		<path class="st1" d="M80.1,24.1v70.2H19.9V24.2L80.1,24.1 M80.1,22.7H19.9c-0.8,0-1.4,0.6-1.4,1.4v70.2c0,0.8,0.6,1.4,1.4,1.4
			h60.2c0.8,0,1.4-0.7,1.4-1.4V24.2C81.6,23.4,80.9,22.7,80.1,22.7L80.1,22.7z"/>
	</g>
	<path class="st2" d="M33.9,27.8c0-12.2,7.2-22.1,16.1-22.1s16.1,9.9,16.1,22.1"/>
</g>
</svg>
